<?xml version="1.0" standalone="no"?>
<!DOCTYPE svg PUBLIC "-//W3C//DTD SVG 20010904//EN"
 "http://www.w3.org/TR/2001/REC-SVG-20010904/DTD/svg10.dtd">
<svg version="1.0" xmlns="http://www.w3.org/2000/svg"
 width="326.000000pt" height="326.000000pt" viewBox="0 0 326.000000 326.000000"
 preserveAspectRatio="xMidYMid meet">
<metadata>
Created by potrace 1.11, written by Peter Selinger 2001-2013
</metadata>
<g transform="translate(0.000000,326.000000) scale(0.100000,-0.100000)"
fill="#000000" stroke="none">
<path d="M1415 3245 c-44 -7 -96 -15 -115 -18 -53 -9 -208 -56 -240 -72 -16
-8 -35 -15 -41 -15 -13 0 -161 -72 -229 -112 -113 -65 -271 -197 -376 -316
-212 -237 -348 -528 -399 -852 -14 -87 -13 -366 2 -462 64 -420 266 -773 592
-1036 245 -197 526 -315 841 -352 73 -8 345 -6 385 3 11 3 43 8 70 11 159 21
370 99 560 205 132 74 338 257 447 396 151 193 268 444 312 670 9 44 18 94 22
110 3 17 7 104 9 195 2 147 -4 229 -28 361 -9 48 -48 180 -73 247 -33 87 -125
272 -136 272 -4 0 -8 6 -8 13 0 6 -29 51 -64 98 -266 353 -626 574 -1061 650
-96 16 -373 19 -470 4z"/>
</g>
</svg>
